<?xml version="1.0" standalone="no"?>
<!DOCTYPE svg PUBLIC "-//W3C//DTD SVG 20010904//EN"
 "http://www.w3.org/TR/2001/REC-SVG-20010904/DTD/svg10.dtd">
<svg version="1.0" xmlns="http://www.w3.org/2000/svg"
 width="512.000000pt" height="512.000000pt" viewBox="0 0 512.000000 512.000000"
 preserveAspectRatio="xMidYMid meet">

<g transform="translate(0.000000,512.000000) scale(0.100000,-0.100000)"
fill="#000000" stroke="none">
<path d="M72 4209 c-20 -6 -40 -22 -52 -42 -20 -31 -20 -59 -20 -1408 0 -889
4 -1395 10 -1430 34 -181 183 -345 365 -402 l70 -22 2115 0 2115 0 70 22 c182
57 331 221 365 402 6 35 10 541 10 1430 0 1345 -1 1377 -20 1408 -13 21 -31
35 -57 42 -50 14 -4923 14 -4971 0z m4846 -1521 c-3 -1226 -4 -1326 -20 -1366
-37 -92 -95 -151 -186 -188 l-57 -24 -2095 0 -2095 0 -57 24 c-91 37 -149 96
-186 188 -16 40 -17 137 -20 1301 -1 739 1 1257 6 1257 5 0 526 -423 1157
-939 709 -581 1158 -942 1176 -946 17 -4 40 -1 57 8 29 14 1752 1417 1805
1468 21 21 27 37 27 69 0 83 -91 129 -158 81 -15 -10 -405 -328 -867 -705
-462 -377 -842 -686 -845 -686 -5 0 -2132 1739 -2160 1766 -12 12 286 14 2253
14 l2267 0 -2 -1322z"/>
<path d="M4575 3866 c-103 -45 -113 -178 -15 -207 127 -38 223 149 105 206
-40 18 -51 18 -90 1z"/>
</g>
</svg>
