<?xml version="1.0" standalone="no"?>
<!DOCTYPE svg PUBLIC "-//W3C//DTD SVG 20010904//EN"
 "http://www.w3.org/TR/2001/REC-SVG-20010904/DTD/svg10.dtd">
<svg version="1.0" xmlns="http://www.w3.org/2000/svg"
 width="512.000000pt" height="512.000000pt" viewBox="0 0 512.000000 512.000000"
 preserveAspectRatio="xMidYMid meet">

<g transform="translate(0.000000,512.000000) scale(0.100000,-0.100000)"
fill="#000000" stroke="none">
<path d="M2394 4626 c-233 -45 -405 -137 -561 -299 -91 -95 -140 -166 -193
-280 -70 -150 -82 -213 -87 -469 l-5 -227 -36 -6 c-260 -43 -461 -200 -547
-429 -52 -138 -54 -169 -56 -1031 -1 -724 0 -806 16 -864 62 -238 236 -426
470 -508 l80 -28 1085 0 1085 0 80 28 c229 81 411 277 471 507 15 59 16 145
15 865 -2 871 -4 896 -59 1039 -86 220 -268 366 -523 416 l-57 11 -5 227 c-5
256 -17 320 -87 469 -53 114 -102 185 -193 280 -189 198 -420 300 -697 309
-80 2 -151 -1 -196 -10z m304 -321 c233 -46 434 -223 516 -454 29 -83 31 -93
34 -288 l4 -203 -692 0 -692 0 4 203 c3 195 5 205 34 288 117 330 451 521 792
454z m934 -1293 c119 -40 199 -122 236 -241 16 -51 17 -124 17 -851 0 -727 -1
-800 -17 -851 -38 -122 -119 -203 -241 -241 l-72 -23 -995 0 -995 0 -72 23
c-85 26 -146 70 -190 136 -70 104 -67 66 -71 928 -2 674 -1 786 13 844 39 169
141 263 318 293 29 5 491 8 1027 7 l975 -1 67 -23z"/>
<path d="M2490 2391 c-114 -35 -190 -137 -190 -256 0 -69 22 -123 69 -177 l31
-36 0 -231 c0 -211 2 -235 20 -270 57 -113 223 -113 280 0 18 35 20 59 20 267
l0 229 33 36 c102 108 101 264 -2 367 -68 68 -174 97 -261 71z"/>
</g>
</svg>
